<svg viewBox="0 0 150 150" xmlns="http://www.w3.org/2000/svg" xmlns:xlink="http://www.w3.org/1999/xlink" width="150.000000" height="150.000000" fill="none" customFrame="#000000">
	<g id="icon">
		<circle id="Ellipse 18" cx="75" cy="75" r="75" fill="rgb(253,251.16,249)" />
		<circle id="Ellipse 18" cx="75" cy="75" r="73.5" stroke="rgb(43.5625,43.5625,43.5625)" stroke-width="3" />
		<path id="Vector 4" d="M31.2095 123C35.6857 121.729 42.6326 118.748 50.6184 113.684C63.3009 105.643 78.6035 92.3481 90.7902 72.3084M50.6184 113.684C77.5501 120.528 128.615 115.464 117.421 40.4579C92.6725 41.8942 76.3829 49.6537 65.5139 59.5089C59.1456 65.2833 54.6382 71.7771 51.3805 78.1402C48.732 83.3135 46.9096 88.4005 45.5849 92.9439C44.3715 97.1058 43.5757 100.812 42.9451 103.71M51.3805 78.1402C51.5779 73.8037 51.0697 61.6318 47.4588 47.6355M45.5849 92.9439C34.5788 83.2243 19.1702 56.428 45.5849 27C61.8892 34.1776 65.6643 51.6633 65.5139 59.5089" stroke="rgb(43.5625,43.5625,43.5625)" stroke-linecap="round" stroke-linejoin="round" stroke-width="3" />
	</g>
</svg>
