<svg viewBox="0 0 40 40" xmlns="http://www.w3.org/2000/svg" xmlns:xlink="http://www.w3.org/1999/xlink" width="40.000000" height="40.000000" fill="none" customFrame="#000000">
	<rect id="socials" width="40.000000" height="40.000000" x="0.000000" y="0.000000" />
	<rect id="Rectangle 1" width="40.000000" height="40.000000" x="0.000000" y="0.000000" rx="20.000000" fill="rgb(253,251.16,249)" />
	<path id="Vector" d="M21.6571 20.3648L25.3793 20.3648L25.9637 16.5605L21.6563 16.5605L21.6563 14.4813C21.6563 12.901 22.1696 11.4996 23.6389 11.4996L26 11.4996L26 8.17974C25.5852 8.12338 24.7078 8 23.05 8C19.5882 8 17.5587 9.8393 17.5587 14.0297L17.5587 16.5605L14 16.5605L14 20.3648L17.5587 20.3648L17.5587 30.821C18.2634 30.9276 18.9773 31 19.7101 31C20.3724 31 21.0189 30.9391 21.6571 30.8522L21.6571 20.3648Z" fill="rgb(43.5625,43.5625,43.5625)" fill-rule="nonzero" />
</svg>
