<svg viewBox="0 0 28 28" xmlns="http://www.w3.org/2000/svg" xmlns:xlink="http://www.w3.org/1999/xlink" width="28.000000" height="28.000000" fill="none">
	<rect id="settings-2" width="28.000000" height="28.000000" x="0.000000" y="0.000000" />
	<path id="Vector" d="M23.334 8.16666L12.834 8.16666" stroke="rgb(43.5625,43.5625,43.5625)" stroke-linecap="round" stroke-linejoin="round" stroke-width="2" />
	<path id="Vector" d="M16.334 19.8333L5.83398 19.8333" stroke="rgb(43.5625,43.5625,43.5625)" stroke-linecap="round" stroke-linejoin="round" stroke-width="2" />
	<path id="Vector" d="M19.834 23.3333C17.901 23.3333 16.334 21.7663 16.334 19.8333C16.334 17.9003 17.901 16.3333 19.834 16.3333C21.767 16.3333 23.334 17.9003 23.334 19.8333C23.334 21.7663 21.767 23.3333 19.834 23.3333Z" stroke="rgb(43.5625,43.5625,43.5625)" stroke-linecap="round" stroke-linejoin="round" stroke-width="2" />
	<path id="Vector" d="M8.16602 11.6667C6.23302 11.6667 4.66602 10.0997 4.66602 8.16669C4.66602 6.23369 6.23302 4.66669 8.16602 4.66669C10.099 4.66669 11.666 6.23369 11.666 8.16669C11.666 10.0997 10.099 11.6667 8.16602 11.6667Z" stroke="rgb(43.5625,43.5625,43.5625)" stroke-linecap="round" stroke-linejoin="round" stroke-width="2" />
</svg>
