<svg viewBox="0 0 40 40" xmlns="http://www.w3.org/2000/svg" xmlns:xlink="http://www.w3.org/1999/xlink" width="40.000000" height="40.000000" fill="none" customFrame="#000000">
	<rect id="socials" width="40.000000" height="40.000000" x="0.000000" y="0.000000" />
	<rect id="Rectangle 1" width="40.000000" height="40.000000" x="0.000000" y="0.000000" rx="20.000000" fill="rgb(253,251.16,249)" />
	<path id="instagram" d="M15.9036 10L24.0964 10C25.1807 10.1205 25.9036 10.241 26.506 10.4819C27.2289 10.8434 27.7108 11.0843 28.3133 11.6867C28.9157 12.2892 29.2771 12.8916 29.5181 13.494C29.759 14.0964 30 14.8193 30 15.9036L30 24.0964C29.8795 25.1807 29.759 25.9036 29.5181 26.506C29.1566 27.2289 28.9157 27.7108 28.3133 28.3133C27.7108 28.9157 27.1084 29.2771 26.506 29.5181C25.9036 29.759 25.1807 30 24.0964 30L15.9036 30C14.8193 29.8795 14.0964 29.759 13.494 29.5181C12.7711 29.1566 12.2892 28.9157 11.6867 28.3133C11.0843 27.7108 10.7229 27.1084 10.4819 26.506C10.241 25.9036 10 25.1807 10 24.0964L10 15.9036C10.1205 14.8193 10.241 14.0964 10.4819 13.494C10.8434 12.7711 11.0843 12.2892 11.6867 11.6867C12.2892 11.0843 12.8916 10.7229 13.494 10.4819C14.0964 10.241 14.8193 10 15.9036 10ZM24.0964 11.8072L15.9036 11.8072C14.9398 11.9277 14.4578 12.0482 14.0964 12.1687C13.6145 12.2892 13.253 12.5301 12.8916 12.8916C12.5301 13.253 12.4096 13.6145 12.1687 14.0964C12.0482 14.4578 11.8072 14.9398 11.8072 15.9036L11.8072 24.0964C11.9277 25.0602 12.0482 25.5422 12.1687 25.9036C12.2892 26.3855 12.5301 26.747 12.8916 27.1084C13.253 27.4699 13.6145 27.5904 14.0964 27.8313C14.4578 27.9518 14.9398 28.1928 15.9036 28.1928L24.0964 28.1928C25.0602 28.0723 25.5422 27.9518 25.9036 27.8313C26.3855 27.7108 26.747 27.4699 27.1084 27.1084C27.4699 26.747 27.5904 26.3855 27.8313 25.9036C27.9518 25.5422 28.1928 25.0602 28.1928 24.0964L28.1928 15.9036C28.0723 14.9398 27.9518 14.4578 27.8313 14.0964C27.7108 13.6145 27.4699 13.253 27.1084 12.8916C26.747 12.5301 26.3855 12.4096 25.9036 12.1687C25.5422 12.0482 25.0602 11.8072 24.0964 11.8072ZM26.506 14.6988C26.506 15.3642 25.9666 15.9036 25.3012 15.9036C24.6358 15.9036 24.0964 15.3642 24.0964 14.6988C24.0964 14.0334 24.6358 13.494 25.3012 13.494C25.9666 13.494 26.506 14.0334 26.506 14.6988ZM20 14.8193C17.1084 14.8193 14.8193 17.1084 14.8193 20C14.8193 22.8916 17.1084 25.1807 20 25.1807C22.8916 25.1807 25.1807 22.8916 25.1807 20C25.1807 17.1084 22.8916 14.8193 20 14.8193ZM20 23.3735C18.1928 23.3735 16.6265 21.9277 16.6265 20C16.6265 18.1928 18.0723 16.6265 20 16.6265C21.8072 16.6265 23.3735 18.0723 23.3735 20C23.3735 21.8072 21.8072 23.3735 20 23.3735Z" fill="rgb(43.5625,43.5625,43.5625)" fill-rule="evenodd" />
</svg>
