<svg viewBox="0 0 28 28" xmlns="http://www.w3.org/2000/svg" xmlns:xlink="http://www.w3.org/1999/xlink" width="28.000000" height="28.000000" fill="none">
	<rect id="shopping-bag" width="28.000000" height="28.000000" x="0.000000" y="0.000000" />
	<path id="Vector" d="M3.5 7L3.5 23.3333C3.5 23.9522 3.74583 24.5457 4.18342 24.9833C4.621 25.4208 5.21449 25.6667 5.83333 25.6667L22.1667 25.6667C22.7855 25.6667 23.379 25.4208 23.8166 24.9833C24.2542 24.5457 24.5 23.9522 24.5 23.3333L24.5 7L21 2.33334L7 2.33334L3.5 7Z" fill-rule="nonzero" stroke="rgb(43.5625,43.5625,43.5625)" stroke-linecap="round" stroke-linejoin="round" stroke-width="2" />
	<path id="Vector" d="M3.5 7L24.5 7" stroke="rgb(43.5625,43.5625,43.5625)" stroke-linecap="round" stroke-linejoin="round" stroke-width="2" />
	<path id="Vector" d="M18.6693 11.6667C18.6693 12.9043 18.1776 14.0913 17.3024 14.9665C16.4273 15.8417 15.2403 16.3333 14.0026 16.3333C12.7649 16.3333 11.5779 15.8417 10.7028 14.9665C9.8276 14.0913 9.33594 12.9043 9.33594 11.6667" fill-rule="nonzero" stroke="rgb(43.5625,43.5625,43.5625)" stroke-linecap="round" stroke-linejoin="round" stroke-width="2" />
</svg>
